<svg id="visual" viewBox="0 0 900 600" width="900" height="600" xmlns="http://www.w3.org/2000/svg" xmlns:xlink="http://www.w3.org/1999/xlink" version="1.1"><rect x="0" y="0" width="900" height="600" fill="#2D46B9"></rect><path d="M0 378L21.5 396.5C43 415 86 452 128.8 453C171.7 454 214.3 419 257.2 406C300 393 343 402 385.8 415.2C428.7 428.3 471.3 445.7 514.2 460.7C557 475.7 600 488.3 642.8 481.7C685.7 475 728.3 449 771.2 437.2C814 425.3 857 427.7 878.5 428.8L900 430L900 601L878.5 601C857 601 814 601 771.2 601C728.3 601 685.7 601 642.8 601C600 601 557 601 514.2 601C471.3 601 428.7 601 385.8 601C343 601 300 601 257.2 601C214.3 601 171.7 601 128.8 601C86 601 43 601 21.5 601L0 601Z" fill="#ffffff" stroke-linecap="round" stroke-linejoin="miter"></path></svg>