<svg id="visual" viewBox="0 0 1800 910" width="1800" height="910" xmlns="http://www.w3.org/2000/svg" xmlns:xlink="http://www.w3.org/1999/xlink" version="1.1"><path d="M0 119L27.3 125.2C54.7 131.3 109.3 143.7 163.8 136.2C218.3 128.7 272.7 101.3 327.2 95.2C381.7 89 436.3 104 491 111.5C545.7 119 600.3 119 654.8 123.7C709.3 128.3 763.7 137.7 818.2 143.8C872.7 150 927.3 153 981.8 149.8C1036.3 146.7 1090.7 137.3 1145.2 141.8C1199.7 146.3 1254.3 164.7 1309 175.3C1363.7 186 1418.3 189 1472.8 169.3C1527.3 149.7 1581.7 107.3 1636.2 92.2C1690.7 77 1745.3 89 1772.7 95L1800 101L1800 0L1772.7 0C1745.3 0 1690.7 0 1636.2 0C1581.7 0 1527.3 0 1472.8 0C1418.3 0 1363.7 0 1309 0C1254.3 0 1199.7 0 1145.2 0C1090.7 0 1036.3 0 981.8 0C927.3 0 872.7 0 818.2 0C763.7 0 709.3 0 654.8 0C600.3 0 545.7 0 491 0C436.3 0 381.7 0 327.2 0C272.7 0 218.3 0 163.8 0C109.3 0 54.7 0 27.3 0L0 0Z" fill="#004fa4"></path><path d="M0 174L27.3 184.7C54.7 195.3 109.3 216.7 163.8 222.7C218.3 228.7 272.7 219.3 327.2 220.8C381.7 222.3 436.3 234.7 491 243.8C545.7 253 600.3 259 654.8 263.5C709.3 268 763.7 271 818.2 274C872.7 277 927.3 280 981.8 269.3C1036.3 258.7 1090.7 234.3 1145.2 238.8C1199.7 243.3 1254.3 276.7 1309 282.8C1363.7 289 1418.3 268 1472.8 237.7C1527.3 207.3 1581.7 167.7 1636.2 158.5C1690.7 149.3 1745.3 170.7 1772.7 181.3L1800 192L1800 99L1772.7 93C1745.3 87 1690.7 75 1636.2 90.2C1581.7 105.3 1527.3 147.7 1472.8 167.3C1418.3 187 1363.7 184 1309 173.3C1254.3 162.7 1199.7 144.3 1145.2 139.8C1090.7 135.3 1036.3 144.7 981.8 147.8C927.3 151 872.7 148 818.2 141.8C763.7 135.7 709.3 126.3 654.8 121.7C600.3 117 545.7 117 491 109.5C436.3 102 381.7 87 327.2 93.2C272.7 99.3 218.3 126.7 163.8 134.2C109.3 141.7 54.7 129.3 27.3 123.2L0 117Z" fill="#2175e3"></path><path d="M0 401L27.3 392C54.7 383 109.3 365 163.8 357.5C218.3 350 272.7 353 327.2 351.5C381.7 350 436.3 344 491 365.2C545.7 386.3 600.3 434.7 654.8 446.8C709.3 459 763.7 435 818.2 423C872.7 411 927.3 411 981.8 391.2C1036.3 371.3 1090.7 331.7 1145.2 345.2C1199.7 358.7 1254.3 425.3 1309 443.5C1363.7 461.7 1418.3 431.3 1472.8 411.7C1527.3 392 1581.7 383 1636.2 364.8C1690.7 346.7 1745.3 319.3 1772.7 305.7L1800 292L1800 190L1772.7 179.3C1745.3 168.7 1690.7 147.3 1636.2 156.5C1581.7 165.7 1527.3 205.3 1472.8 235.7C1418.3 266 1363.7 287 1309 280.8C1254.3 274.7 1199.7 241.3 1145.2 236.8C1090.7 232.3 1036.3 256.7 981.8 267.3C927.3 278 872.7 275 818.2 272C763.7 269 709.3 266 654.8 261.5C600.3 257 545.7 251 491 241.8C436.3 232.7 381.7 220.3 327.2 218.8C272.7 217.3 218.3 226.7 163.8 220.7C109.3 214.7 54.7 193.3 27.3 182.7L0 172Z" fill="#5293ed"></path><path d="M0 784L27.3 780.8C54.7 777.7 109.3 771.3 163.8 741C218.3 710.7 272.7 656.3 327.2 620C381.7 583.7 436.3 565.3 491 566.8C545.7 568.3 600.3 589.7 654.8 624.5C709.3 659.3 763.7 707.7 818.2 718.2C872.7 728.7 927.3 701.3 981.8 693.8C1036.3 686.3 1090.7 698.7 1145.2 718.5C1199.7 738.3 1254.3 765.7 1309 753.5C1363.7 741.3 1418.3 689.7 1472.8 663.8C1527.3 638 1581.7 638 1636.2 657.7C1690.7 677.3 1745.3 716.7 1772.7 736.3L1800 756L1800 290L1772.7 303.7C1745.3 317.3 1690.7 344.7 1636.2 362.8C1581.7 381 1527.3 390 1472.8 409.7C1418.3 429.3 1363.7 459.7 1309 441.5C1254.3 423.3 1199.7 356.7 1145.2 343.2C1090.7 329.7 1036.3 369.3 981.8 389.2C927.3 409 872.7 409 818.2 421C763.7 433 709.3 457 654.8 444.8C600.3 432.7 545.7 384.3 491 363.2C436.3 342 381.7 348 327.2 349.5C272.7 351 218.3 348 163.8 355.5C109.3 363 54.7 381 27.3 390L0 399Z" fill="#2175e3"></path><path d="M0 911L27.3 911C54.7 911 109.3 911 163.8 911C218.3 911 272.7 911 327.2 911C381.7 911 436.3 911 491 911C545.7 911 600.3 911 654.8 911C709.3 911 763.7 911 818.2 911C872.7 911 927.3 911 981.8 911C1036.3 911 1090.7 911 1145.2 911C1199.7 911 1254.3 911 1309 911C1363.7 911 1418.3 911 1472.8 911C1527.3 911 1581.7 911 1636.2 911C1690.7 911 1745.3 911 1772.7 911L1800 911L1800 754L1772.7 734.3C1745.3 714.7 1690.7 675.3 1636.2 655.7C1581.7 636 1527.3 636 1472.8 661.8C1418.3 687.7 1363.7 739.3 1309 751.5C1254.3 763.7 1199.7 736.3 1145.2 716.5C1090.7 696.7 1036.3 684.3 981.8 691.8C927.3 699.3 872.7 726.7 818.2 716.2C763.7 705.7 709.3 657.3 654.8 622.5C600.3 587.7 545.7 566.3 491 564.8C436.3 563.3 381.7 581.7 327.2 618C272.7 654.3 218.3 708.7 163.8 739C109.3 769.3 54.7 775.7 27.3 778.8L0 782Z" fill="#004fa4"></path></svg>