<svg xmlns="http://www.w3.org/2000/svg" width="182.369" height="184.418" viewBox="0 0 182.369 184.418"><defs><style>.a{fill:#e31c3d;}</style></defs><g transform="translate(0)"><path class="a" d="M189.563,231.958V260.9L217.6,231.958Z" transform="translate(-189.563 -116.856)"/><path class="a" d="M222.669,141.856c2.822-1.342,4.255-3.823,4.255-7.441a8.141,8.141,0,0,0-3.026-6.69c-2.5-1.844-6.122-2.754-10.809-2.754h-9.808v18.888h9.808A22.133,22.133,0,0,0,222.669,141.856Z" transform="translate(-192.835 -91.337)"/><path class="a" d="M318.1,241a12.272,12.272,0,0,0-4.46-3.322,13.866,13.866,0,0,0-5.575-1.115,13.7,13.7,0,0,0-5.507,1.115,13.142,13.142,0,0,0-4.483,3.232,15.175,15.175,0,0,0-2.891,4.87,16.779,16.779,0,0,0-1.024,5.871,16.435,16.435,0,0,0,1.024,5.826,15.216,15.216,0,0,0,2.891,4.824,13.08,13.08,0,0,0,4.483,3.209,13.715,13.715,0,0,0,5.507,1.138A12.942,12.942,0,0,0,318.1,262.3a14.206,14.206,0,0,0,2.913-4.779,17.351,17.351,0,0,0,0-11.742A13.772,13.772,0,0,0,318.1,241Z" transform="translate(-214.512 -117.954)"/><path class="a" d="M379.181,287.07h3.663l-1.82-4.847Z" transform="translate(-234.791 -128.845)"/><path class="a" d="M371.728,161.337l-18-24.167v-41.8A14.6,14.6,0,0,0,339.186,80.8H204.1a14.588,14.588,0,0,0-14.542,14.564v4.3H212.57a48.983,48.983,0,0,1,14.586,1.911,25.965,25.965,0,0,1,10.173,5.212,21.105,21.105,0,0,1,5.871,7.919,26.157,26.157,0,0,1,1.98,10.354,21.276,21.276,0,0,1-13.63,20.526l-1.366.66,18.979,24.827h-28.4l-15.316-20.618h-4.915v20.618H189.563v7.464h58.53v14.928l-37.616,38.049h37.616v18.455h-58.53v.706A14.568,14.568,0,0,0,204.1,265.22H353.728V164.182h15.065C370.977,164.182,372.5,162.7,371.728,161.337ZM254.692,99.576h55.276v15.338H277.13v14.4h25.009v12.334H277.13v14h32.951v15.338H254.692Zm54.98,141.066a34.236,34.236,0,0,1-11.4,7.578,39.044,39.044,0,0,1-14.655,2.708,39.9,39.9,0,0,1-14.655-2.708,32.778,32.778,0,0,1-11.424-7.51,33.71,33.71,0,0,1-7.4-11.629,42.42,42.42,0,0,1,0-29.947,33.933,33.933,0,0,1,7.4-11.629,34.631,34.631,0,0,1,11.424-7.6,41.324,41.324,0,0,1,29.309,0,34.305,34.305,0,0,1,11.4,7.6,32.627,32.627,0,0,1,7.418,11.629,42.409,42.409,0,0,1,0,29.947A32.489,32.489,0,0,1,309.672,240.642Zm12.061,5.6a2.458,2.458,0,1,1,2.457-2.458A2.466,2.466,0,0,1,321.733,246.241Zm17.727,0-1.16-3.8h-5.53l-1.206,3.8h-4.984l6.645-18.228h4.6l6.576,18.228Zm11.264,0h-5.211V227.808h5.211Z" transform="translate(-189.563 -80.802)"/></g></svg>